# xmcd CD database file
#
# Track frame offsets:
#	150
#	18747
#	35432
#	50285
#	67196
#	77048
#	89113
#	101512
#	115278
#	124638
#	138804
#	150808
#
# Disc length: 2197 seconds
#
# Revision: 0
# Processed by: cddbd v1.5.2PL0 Copyright (c) Steve Scherf et al.
# Submitted via: CDex 1.60beta1-cs1
#
DISCID=9808930c
DTITLE=Grady Yates - Texas to Tortola
DYEAR=2007
DGENRE=Country
TTITLE0=Postcard Sunset
TTITLE1=The Old Man Could Fish
TTITLE2=My Best Friend
TTITLE3=Ten Bare Toes
TTITLE4=Margarita Senorita
TTITLE5=Ten Calorie Beer
TTITLE6=The Grand Design
TTITLE7=Sailing at Noon
TTITLE8=Everything's Different
TTITLE9=All Too Soon
TTITLE10=Island Reverie
TTITLE11=I Am Not Gone
EXTD=YEAR: 2007
EXTT0=
EXTT1=
EXTT2=
EXTT3=
EXTT4=
EXTT5=
EXTT6=
EXTT7=
EXTT8=
EXTT9=
EXTT10=
EXTT11=
PLAYORDER=
